# xmcd CD database file
#
# Track frame offsets:
#	150
#	23142
#	40580
#	56512
#	59537
#	79790
#	112992
#	134755
#	156307
#	171340
#	191842
#	212910
#	234325
#	282945
#
# Disc length: 4194 seconds
#
# Revision: 4
# Processed by: cddbd v1.5.2PL0 Copyright (c) Steve Scherf et al.
# Submitted via: CDex 1.70beta2
#
DISCID=c910600e
DTITLE=Various Artist - Hard Rock Summit In Citta'
DYEAR=2002
DGENRE=Heavy Metal
TTITLE0=Stardust Way
TTITLE1=I Surrender
TTITLE2=Distraction
TTITLE3=Caduceus
TTITLE4=Salvation Army
TTITLE5=Runaway From Yesterday
TTITLE6=Straight Fighter
TTITLE7=Liar
TTITLE8=Break
TTITLE9=Impact
TTITLE10=Action! 100,000 Volt
TTITLE11=Honey Dripper
TTITLE12=James In My Casket
TTITLE13=Again
EXTD=YEAR: 2002
EXTT0=
EXTT1=
EXTT2=
EXTT3=
EXTT4=
EXTT5=
EXTT6=
EXTT7=
EXTT8=
EXTT9=
EXTT10=
EXTT11=
EXTT12=
EXTT13=
PLAYORDER=
